<svg xmlns="http://www.w3.org/2000/svg" viewBox="0 0 512 512">
  <rect width="512" height="512" rx="112" fill="#0f172a"/>
  <!-- Document shape -->
  <rect x="120" y="80" width="272" height="352" rx="20" fill="#1e293b"/>
  <rect x="120" y="80" width="272" height="352" rx="20" fill="none" stroke="#3b82f6" stroke-width="8"/>
  <!-- Lines of text -->
  <rect x="156" y="140" width="140" height="12" rx="6" fill="#3b82f6"/>
  <rect x="156" y="172" width="200" height="8" rx="4" fill="#475569"/>
  <rect x="156" y="192" width="180" height="8" rx="4" fill="#475569"/>
  <rect x="156" y="212" width="190" height="8" rx="4" fill="#475569"/>
  <!-- Signature line -->
  <rect x="156" y="310" width="200" height="2" rx="1" fill="#334155"/>
  <!-- Signature squiggle -->
  <path d="M160 300 Q175 285 190 300 Q205 315 220 295 Q235 278 250 298" stroke="#3b82f6" stroke-width="6" fill="none" stroke-linecap="round"/>
  <!-- Camera icon bottom right -->
  <circle cx="368" cy="380" r="52" fill="#3b82f6"/>
  <rect x="344" y="366" width="48" height="36" rx="6" fill="white"/>
  <circle cx="368" cy="384" r="10" fill="#3b82f6"/>
  <rect x="358" y="360" width="20" height="8" rx="3" fill="white"/>
</svg>
